<svg width="1200" height="900" viewBox="0 0 1200 900" fill="none" xmlns="http://www.w3.org/2000/svg">
  <rect width="1200" height="900" fill="#F7F2EB"/>
  <rect x="0" y="0" width="1200" height="900" fill="url(#wall)"/>
  <rect x="0" y="690" width="1200" height="210" fill="#E1D3C2"/>
  <rect x="134" y="120" width="360" height="500" rx="22" fill="#EFE3D4"/>
  <rect x="156" y="144" width="316" height="454" rx="18" fill="#F8F4EE"/>
  <rect x="170" y="160" width="288" height="160" rx="12" fill="#E6D8C6"/>
  <rect x="184" y="174" width="260" height="132" rx="10" fill="#FFFDFB"/>
  <rect x="622" y="198" width="308" height="330" rx="24" fill="#FFFFFF"/>
  <ellipse cx="776" cy="514" rx="162" ry="48" fill="#D9C8B5"/>
  <ellipse cx="776" cy="482" rx="162" ry="114" fill="#FFFDFB"/>
  <ellipse cx="776" cy="480" rx="126" ry="80" fill="#F2E9DE"/>
  <rect x="490" y="434" width="112" height="210" rx="18" fill="#8C5F39"/>
  <rect x="510" y="414" width="72" height="36" rx="10" fill="#EFE6DC"/>
  <rect x="950" y="214" width="110" height="326" rx="18" fill="#E9D9C7"/>
  <rect x="972" y="236" width="66" height="282" rx="12" fill="#FFFDFB"/>
  <rect x="968" y="566" width="74" height="22" rx="8" fill="#A5794A"/>
  <path d="M556 422C556 394.938 577.938 373 605 373V373C632.062 373 654 394.938 654 422V512H638V422C638 403.775 623.225 389 605 389V389C586.775 389 572 403.775 572 422V462H556V422Z" fill="#C59D5C"/>
  <defs>
    <linearGradient id="wall" x1="600" y1="0" x2="600" y2="900" gradientUnits="userSpaceOnUse">
      <stop stop-color="#F9F4EC"/>
      <stop offset="1" stop-color="#EFE4D7"/>
    </linearGradient>
  </defs>
</svg>
