<svg width="1200" height="900" viewBox="0 0 1200 900" fill="none" xmlns="http://www.w3.org/2000/svg">
  <rect width="1200" height="900" fill="#EDE1D0"/>
  <rect x="0" y="0" width="1200" height="540" fill="url(#sky)"/>
  <rect x="0" y="540" width="1200" height="360" fill="#7C8B5A"/>
  <rect x="310" y="280" width="580" height="300" rx="18" fill="#EFE6DA"/>
  <rect x="352" y="240" width="210" height="164" rx="12" fill="#EEE2D2"/>
  <rect x="640" y="230" width="208" height="176" rx="12" fill="#E8D9C7"/>
  <rect x="390" y="318" width="92" height="98" rx="10" fill="#2E2A28"/>
  <rect x="442" y="454" width="112" height="126" rx="10" fill="#8E633B"/>
  <rect x="690" y="316" width="98" height="98" rx="10" fill="#2E2A28"/>
  <rect x="770" y="316" width="98" height="98" rx="10" fill="#2E2A28"/>
  <rect x="620" y="456" width="192" height="124" rx="10" fill="#F4EFE7"/>
  <path d="M308 280L600 138L892 280H308Z" fill="#2F2A28"/>
  <path d="M444 454L500 406L556 454H444Z" fill="#2F2A28"/>
  <rect x="114" y="644" width="972" height="34" rx="17" fill="#CBB497"/>
  <circle cx="214" cy="664" r="32" fill="#5C6A41"/>
  <circle cx="986" cy="664" r="32" fill="#5C6A41"/>
  <circle cx="292" cy="724" r="28" fill="#5C6A41"/>
  <circle cx="908" cy="724" r="28" fill="#5C6A41"/>
  <defs>
    <linearGradient id="sky" x1="600" y1="0" x2="600" y2="540" gradientUnits="userSpaceOnUse">
      <stop stop-color="#F3D7B6"/>
      <stop offset="1" stop-color="#FCF6EC"/>
    </linearGradient>
  </defs>
</svg>
