<svg width="1200" height="900" viewBox="0 0 1200 900" fill="none" xmlns="http://www.w3.org/2000/svg">
  <rect width="1200" height="900" fill="#F6EEE4"/>
  <rect x="0" y="0" width="1200" height="900" fill="url(#bg)"/>
  <rect x="0" y="650" width="1200" height="250" fill="#E6D8C5"/>
  <rect x="128" y="114" width="832" height="414" rx="18" fill="#F7F1E7"/>
  <rect x="170" y="150" width="220" height="338" rx="14" fill="#E7D7C0"/>
  <rect x="414" y="150" width="248" height="338" rx="14" fill="#F9F7F1"/>
  <rect x="688" y="150" width="226" height="338" rx="14" fill="#E7D7C0"/>
  <rect x="446" y="210" width="184" height="16" rx="8" fill="#D6AD68"/>
  <rect x="446" y="244" width="184" height="132" rx="8" fill="#FFFFFF"/>
  <rect x="446" y="390" width="184" height="74" rx="8" fill="#EDE3D7"/>
  <rect x="280" y="432" width="650" height="186" rx="16" fill="#F9F2E8"/>
  <path d="M320 464C320 449.641 331.641 438 346 438H866C880.359 438 892 449.641 892 464V498H320V464Z" fill="#FFFDF9"/>
  <path d="M286 624H944L884 862H356L286 624Z" fill="#E4D4C2"/>
  <rect x="466" y="622" width="322" height="240" fill="#B59772" fill-opacity="0.2"/>
  <path d="M574 510C574 479.073 599.073 454 630 454V454C660.927 454 686 479.073 686 510V618H667V510C667 489.566 650.434 473 630 473V473C609.566 473 593 489.566 593 510V556H574V510Z" fill="#C59D5C"/>
  <rect x="418" y="622" width="70" height="180" rx="18" fill="#A98F72"/>
  <rect x="418" y="592" width="70" height="42" rx="21" fill="#CDB9A4"/>
  <rect x="532" y="622" width="70" height="180" rx="18" fill="#A98F72"/>
  <rect x="532" y="592" width="70" height="42" rx="21" fill="#CDB9A4"/>
  <rect x="646" y="622" width="70" height="180" rx="18" fill="#A98F72"/>
  <rect x="646" y="592" width="70" height="42" rx="21" fill="#CDB9A4"/>
  <rect x="760" y="622" width="70" height="180" rx="18" fill="#A98F72"/>
  <rect x="760" y="592" width="70" height="42" rx="21" fill="#CDB9A4"/>
  <circle cx="322" cy="176" r="34" fill="#D6AD68" fill-opacity="0.28"/>
  <circle cx="322" cy="176" r="24" fill="#D6AD68"/>
  <circle cx="604" cy="176" r="34" fill="#D6AD68" fill-opacity="0.28"/>
  <circle cx="604" cy="176" r="24" fill="#D6AD68"/>
  <circle cx="786" cy="176" r="34" fill="#D6AD68" fill-opacity="0.28"/>
  <circle cx="786" cy="176" r="24" fill="#D6AD68"/>
  <defs>
    <linearGradient id="bg" x1="600" y1="0" x2="600" y2="900" gradientUnits="userSpaceOnUse">
      <stop stop-color="#FBF8F2"/>
      <stop offset="1" stop-color="#F2E8D8"/>
    </linearGradient>
  </defs>
</svg>
